<?xml version="1.0" encoding="UTF-8"?>
<svg id="Layer_2" data-name="Layer 2" xmlns="http://www.w3.org/2000/svg" viewBox="0 0 267.11 832.61">
  <defs>
    <style>
      .cls-1 {
        fill: #f5b02f;
      }

      .cls-2 {
        fill: #e6e6e6;
      }

      .cls-3 {
        fill: #fff;
      }

      .cls-4 {
        fill: #fe8572;
      }

      .cls-5 {
        fill: #7c91a8;
      }

      .cls-6 {
        fill: #1e2d46;
      }

      .cls-7 {
        fill: #1a1a1a;
      }

      .cls-8 {
        fill: #481e1e;
      }

      .cls-9 {
        fill: #788190;
      }
    </style>
  </defs>
  <g id="creation_people_character" data-name="creation people character">
    <g id="side_stand" data-name="side stand">
      <g>
        <path class="cls-4" d="M201.87,659.87c2.09,45.09,3.18,110.7,4,118.69,1.05,10.22,25.47-3.24,25.47-3.24,0,0,7.24-56.77,11.29-114.73-13.59-.09-27.17-.65-40.76-.72Z"/>
        <path class="cls-2" d="M236.03,768.6h-34.85l-.75,15.39s-11.87,17.98-7.83,25.83c4.04,7.85,40.7,4.33,43.39-1.46s.04-39.75,.04-39.75Z"/>
        <path class="cls-5" d="M215.25,795.86s-14.45-38.12-22.64-13.44l-15.28,15.03s-26.15,12.18-24.78,34.66l91.97,.49s-2.11-34.56-2.52-41.21c-.41-6.65-4.39-15.47-5.22-12.47-.34,1.21-.33,15.98-2.54,17.83-4.26,3.56-18.97-.9-18.97-.9Z"/>
        <g>
          <path class="cls-7" d="M200.89,810.5c.15,.07,.33,.08,.51,0,.35-.16,.54-.57,.44-.94-2.56-9.24-8.54-16.87-16.42-20.94,0,0,0,0,0,0-.31-.15-.7,0-.89,.37-.18,.36-.08,.78,.22,.94,7.6,3.92,13.37,11.29,15.83,20.2,.05,.17,.16,.3,.3,.37Z"/>
          <path class="cls-7" d="M178.07,797.19c.13,.06,.28,.08,.43,.03,8.85-2.73,18.2-2.58,26.33,.42,.33,.12,.71-.09,.86-.46,.15-.38,0-.78-.32-.9-8.36-3.09-17.98-3.24-27.08-.43-.35,.11-.6,.5-.54,.88,.03,.21,.15,.38,.31,.46Z"/>
          <path class="cls-7" d="M207.66,795.48c.2,.1,.46,.07,.67-.1,.31-.25,.4-.69,.21-1-3.94-6.45-10.29-11.11-17.41-12.79-.34-.08-.71,.17-.83,.55s.06,.76,.41,.84c6.85,1.61,12.94,6.09,16.72,12.28,.06,.09,.14,.17,.23,.21Z"/>
          <path class="cls-7" d="M187.55,786.17c.12,.06,.27,.08,.42,.03,6.94-2.04,15.87-1.41,22.75,1.61,.32,.14,.71-.05,.88-.41,.17-.37,.05-.79-.27-.92-7.11-3.12-16.36-3.77-23.55-1.65-.36,.1-.6,.5-.55,.88,.03,.22,.15,.38,.32,.47Z"/>
        </g>
      </g>
      <g>
        <path class="cls-6" d="M254.39,386.61c-4.34-23.18-26.41-70.8-26.41-70.8l-78.95-.84s-.86,33.48-.97,58.82c-.14,32.16,13.29,71.53,13.29,71.53,0,0,69.49-.89,79.83-7.99,10.34-7.11,17.54-27.54,13.2-50.72Z"/>
        <path class="cls-6" d="M209.03,593.83c14.17,0,30.46-10.95,30.46-23.46l5.69-150.31c0-12.51-44.31-30.07-44.31-30.07-14.31,0-49.09-.56-49.09,11.94l31.23,169.15c0,12.51,15.79,22.74,26.02,22.74Z"/>
        <path class="cls-6" d="M209.42,537.3c-19.09,1.22-28.23,16.31-27.35,30.18l12.35,161.38c.88,13.87,48.95,10.55,48.07-3.32,0,0,1.74-60.15,.77-85.57-.97-25.42-5.01-79.78-5.01-79.78-.88-13.87-9.73-24.11-28.83-22.9Z"/>
        <g>
          <path class="cls-9" d="M160.37,340.09v67.41c0,.94,1.46,.94,1.46,0v-67.41c0-.94-1.46-.94-1.46,0h0Z"/>
          <path class="cls-9" d="M163.38,345.13v45.09c0,.94,1.46,.94,1.46,0v-45.09c0-.94-1.46-.94-1.46,0h0Z"/>
          <path class="cls-9" d="M150.9,339.58s6.43,.59,19.16,.74c13.19,.16,26.13,.16,39.31-.52,8.15-.42,16.3-.93,24.45-1.46,.93-.06,.94-1.52,0-1.46-14.03,.91-28.08,1.78-42.14,2.21-12.81,.39-33.63-.1-40.78-.97-.93-.11-.92,1.34,0,1.46h0Z"/>
          <path class="cls-9" d="M184.05,361.95c1.32,11.14,5.51,21.88,12.1,30.96,1.87,2.57,3.92,5.01,6.14,7.29,.66,.67,1.68-.36,1.03-1.03-7.63-7.82-13.18-17.6-16.04-28.15-.81-2.98-1.4-6.01-1.77-9.07-.11-.92-1.57-.93-1.46,0h0Z"/>
        </g>
      </g>
      <path class="cls-1" d="M250.87,358.74c-4.36-28.26-3.81-192.35-5.28-195.81-1.47-3.46-21.76-20.3-29.94-20.3l-42.41,1.04c-8.45,1.05-23.09,47.35-23.8,53.57-3.89,34.18-3.42,133.4-7.76,161.6-2.68,17.42,111.87,17.27,109.19-.1Z"/>
      <g>
        <path class="cls-4" d="M168.44,171.11c-1.29-2.37,2.96-14.24,4.11-21.41,.97-6.05,3.09-7.12,14.14-7.12,1.26,0,30.48-.12,30.88,1.08,1.05,3.18-8.09,15.18-23.85,23.31-9.22,4.76-21.44,11.2-25.28,4.14Z"/>
        <g>
          <polygon class="cls-4" points="203.44 159.36 170.95 162.93 178.1 104.5 209.94 104.5 214.9 145.06 203.44 159.36"/>
          <path class="cls-7" d="M178.1,104.5l-4.26,34.81c13.33,6.48,28.08,2.4,39.41-7.79l-3.31-27.02h-31.84Z"/>
        </g>
      </g>
      <g>
        <path class="cls-4" d="M195.93,26.01c50.48,2.6,40.98,63.31,29.66,79.27-16.93,23.87-41.73,36.3-57.43,31.42-10.85-3.37-10.46-25.02-13.62-32.95-.98-2.46-1.88-5.04-1.46-7.48,.68-4.03,6.12-4.08,9.26-7.01,7.4-6.91,1.82-39.72,6.71-48.26,5.51-9.62,19.54-15.36,26.88-14.98Z"/>
        <g>
          <g>
            <path class="cls-7" d="M178.13,68.83c3.2-1.23,6.76,.42,8.34,3.81,.22,.48,.68,.75,1.14,.49,.4-.22,.68-.89,.46-1.37-.95-2.04-2.41-3.67-4.23-4.59-2.01-1.01-4.28-1.02-6.39-.21-.45,.17-.63,.91-.46,1.37,.2,.55,.69,.67,1.14,.49h0Z"/>
            <path class="cls-7" d="M183.31,80.26c-.37,2.97-2.75,5-5.14,4.69s-3.9-2.83-3.53-5.8c.37-2.97,2.61-5.13,5.01-4.82s4.04,2.96,3.67,5.93Z"/>
          </g>
          <path class="cls-3" d="M156.86,104.01c1.57,5.26,3.38,8.73,5.96,11.64,.67,.18,1.34,.33,2.01,.38,7.95,.61,13.63-3.18,16.1-11.32-9.57,1.56-17.63,.66-24.07-.7Z"/>
        </g>
      </g>
      <path class="cls-6" d="M250.26,98.87c1.85,1.35,4.83,1.04,6.14-.95,1.64-2.48,2.56-5.33,2.67-8.22,1.18,.54,2.6,.59,3.75,.07,2.28-1.04,3.02-3.59,2.19-5.82-.92-2.47-2-4.86-3.22-7.19,.01-.1,.02-.2,.03-.3,.7,.03,1.39-.08,1.98-.35,2.39-1.08,2.89-3.54,2.19-5.82-.9-2.93-2.06-5.76-3.44-8.49,2.92-.05,5.77-2.72,4.03-6.02-1.98-3.74-4.8-6.5-8.31-8.29,1.57-4.44,1.99-9.22,1.11-13.99-.66-3.58-4.5-4.26-6.87-2.79-.24-2.5-.93-4.96-2.12-7.24-1.1-2.1-3.57-3.21-5.82-2.19-.3,.14-.58,.31-.84,.52-.44-2.98-1.61-5.82-3.57-8.39-1.59-2.08-3.89-2.01-5.58-.9-2.38-3.97-5.81-6.99-10.06-9.08-1.48-.73-3.25-.24-4.47,.81-1.92-1.46-4.01-2.72-6.25-3.78-2.46-1.17-4.45,.12-5.31,2.04-3.77-2.25-7.97-3.43-12.04-1.65-2.13,.93-2.77,2.83-2.43,4.58-4.73-1.61-10.48-.42-13.98,3.19-.52,.54-.93,1.15-1.21,1.81-2.5-.31-5.08,.11-7.3,1.43-1.97,1.17-3.34,3.54-2.19,5.82,.02,.03,.04,.06,.06,.1-2.54,.27-4.99,1.28-6.9,3.08-1.73,1.63-2.21,4.25-.64,6.18,.32,.39,.73,.72,1.18,.98-.08,.12-.16,.25-.25,.38-3.38,.84-6.54,2.57-8.99,5.1-1.65,1.7-2.26,4.19-.64,6.18,.39,.48,.94,.88,1.55,1.16-3.01,1.74-5.57,4.21-7.39,7.19-.45,.75-.72,1.58-.77,2.4-.41,.04-.82,.08-1.24,.1-2.37,.14-3.97,2.9-3.61,5.06,.42,2.54,2.68,3.75,5.06,3.61,6.41-.39,12.36-2.68,17.61-6.31,.22-.15,.41-.32,.59-.49,8.04,5.78,15.72,9.59,25.31,11.24-.46,1.91,.19,4.07,2.55,5.01,2.01,.8,4.08,1.44,6.19,1.95,0,.01-.01,.02-.02,.03-.9,2.32,.33,4.71,2.5,5.69,3.29,1.5,7,2.12,10.6,1.8-1,2.41-.01,5.88,3.38,6.44,3.05,.51,6.29,.9,9.47,.85-.9,.83-1.79,1.67-2.66,2.53-1.69,1.67-2.24,4.22-.64,6.18,.59,.72,1.48,1.25,2.45,1.49-.32,.25-.62,.56-.89,.94-4.04,5.58-7.98,12.76-6.95,19.88,.61,4.23,5.72,4.44,7.82,1.86,.61,1.33,1.78,2.33,3.43,2.5,2.18,.23,4.82-1.53,4.82-3.92,0-2.86,2.56-5.09,4.44-7.38,1.39,.49,2.98,.17,4.32-.69,4.11-2.65,6.71-6.73,7.92-11.36,.29,.53,.69,1.02,1.22,1.41Z"/>
      <path class="cls-4" d="M211.43,100.58c3.85-2.06,7.73-4.14,11.04-6.79,3.3-2.65,6.03-5.94,6.98-9.62,.95-3.68,1.38-8.27-3.33-10.24-3.95-1.65-15.4,7.16-15.4,7.16l.7,19.48Z"/>
      <g>
        <path class="cls-1" d="M251.13,181.84c2.84-10.21-5.83-42.51-55.92-9.23-41.56,27.61-70.46,36.56-82.73,47.01-12.6,10.74-11.81,47.1,9.86,45.08,21.67-2.02,123.42-63.52,128.79-82.87Z"/>
        <g>
          <g>
            <path class="cls-4" d="M34.9,145.97h0c-2.11,1.67-6.49,1.62-8.16-.49L2.88,113.64c-3.37-4.17-3.65-8.31-1.54-9.99h0c2.65-2.1,9.41,6.47,9.52,6.59l26.98,29.25c1.67,2.11-.83,4.81-2.94,6.48Z"/>
            <path class="cls-4" d="M47.22,123.65c.75-.47,1.55-.9,2.36-1.28,1.29-.6,2.67-1.08,3.95-1.15,1.28-.07,2.42,.35,2.73,1.25,.33,.95-.26,2.19-.79,3.33-5.7,11.15-6.92,44.62-9.59,47.01-2.49,2.25-8.67,3.3-10.87,.77-3.32-3.59-7.28-17.34-1.3-24.61,1.63-2.04,3.56-3.99,4.4-6.4,.79-2.7,1.89-9.75,3.07-12.32,1.01-2.56,3.27-4.88,6.03-6.61Z"/>
            <path class="cls-4" d="M42.28,143.79c-3.4-5.27-9.18-2.63-35.4-3.36-.97-.03,3.48,29.73,15.29,37.17,8.06,5.08,19.85,4.77,23.86-5.56,2.47-6.34-3.76-28.25-3.76-28.25Z"/>
            <path class="cls-4" d="M20.6,151.99l-12.4-12.28c-2.05-2.03-2.07-5.38-.04-7.44h0c2.03-2.05,5.38-2.07,7.44-.04l12.4,12.28c2.05,2.03,2.07,5.38,.04,7.44h0c-2.03,2.05-5.38,2.07-7.44,.04Z"/>
            <path class="cls-4" d="M16.22,160.37l-12.4-12.28c-2.05-2.03-2.07-5.38-.04-7.44h0c2.03-2.05,5.38-2.07,7.44-.04l12.4,12.28c2.05,2.03,2.07,5.38,.04,7.44h0c-2.03,2.05-5.38,2.07-7.44,.04Z"/>
            <path class="cls-4" d="M11.55,167.82l-10.14-10.04c-1.68-1.66-1.69-4.4-.03-6.08h0c1.66-1.68,4.4-1.69,6.08-.03l10.14,10.04c1.68,1.66,1.69,4.4,.03,6.08h0c-1.66,1.68-4.4,1.69-6.08,.03Z"/>
            <path class="cls-8" d="M24.18,153.78c-1.49,0-2.73-.82-4.11-1.86-1.55-1.17-6.46-6.68-6.67-6.92-.16-.18-.14-.46,.04-.62,.18-.16,.46-.14,.62,.04,.05,.06,5.06,5.68,6.54,6.8,2,1.5,3.26,2.09,5.03,1.38,.22-.09,.48,.02,.57,.24,.09,.22-.02,.48-.24,.57-.64,.26-1.22,.37-1.77,.37Z"/>
            <path class="cls-8" d="M20.31,162.4c-1.52,0-2.79-.84-4.14-1.86-1.55-1.17-6.46-6.68-6.67-6.92-.16-.18-.14-.46,.04-.62,.18-.16,.46-.14,.62,.04,.05,.06,5.06,5.68,6.54,6.8,2,1.5,3.26,2.09,5.03,1.38,.22-.09,.48,.02,.57,.24,.09,.22-.02,.48-.24,.57-.62,.25-1.2,.36-1.75,.36Z"/>
            <path class="cls-8" d="M14.6,169.24c-1.52,0-2.79-.84-4.14-1.86-1.55-1.17-6.46-6.68-6.67-6.92-.16-.18-.14-.46,.04-.62,.18-.16,.46-.14,.62,.04,.05,.06,5.06,5.68,6.54,6.8,2,1.5,3.26,2.09,5.03,1.38,.22-.09,.48,.02,.57,.24,.09,.22-.02,.48-.24,.57-.62,.25-1.2,.36-1.75,.36Z"/>
            <path class="cls-8" d="M28.19,165.79c-.17,0-.34-.1-.41-.28-1.38-3.46,6.44-23.06,7.33-25.28,.09-.22,.35-.33,.57-.24,.22,.09,.33,.34,.24,.57-2.4,5.95-8.39,21.98-7.33,24.63,.09,.22-.02,.48-.24,.57-.05,.02-.11,.03-.16,.03Z"/>
          </g>
          <path class="cls-1" d="M132.59,260.12c-10.12,12.79-30.77-1.65-41-8.25-10.23-6.6-73.16-63.16-73.16-63.16l33.89-27.9s52.68,44.51,61.79,49.35c25.69,13.63,34.62,29.56,18.48,49.97Z"/>
        </g>
      </g>
    </g>
  </g>
</svg>