<?xml version="1.0" encoding="UTF-8"?>
<svg id="Layer_2" data-name="Layer 2" xmlns="http://www.w3.org/2000/svg" viewBox="0 0 140.69 161.9">
  <defs>
    <style>
      .cls-1 {
        fill: #f5b02f;
      }

      .cls-2 {
        fill: #fe8572;
      }

      .cls-3 {
        fill: #481e1e;
      }
    </style>
  </defs>
  <g id="creation_people_character" data-name="creation people character">
    <g id="side_stand" data-name="side stand">
      <g>
        <g>
          <path class="cls-2" d="M34.9,42.65h0c-2.11,1.67-6.49,1.62-8.16-.49L2.88,10.32C-.49,6.15-.77,2,1.34,.33h0C3.99-1.77,10.76,6.8,10.86,6.92l26.98,29.25c1.67,2.11-.83,4.81-2.94,6.48Z"/>
          <path class="cls-2" d="M47.22,20.33c.75-.47,1.55-.9,2.36-1.28,1.29-.6,2.67-1.08,3.95-1.15,1.28-.07,2.42,.35,2.73,1.25,.33,.95-.26,2.19-.79,3.33-5.7,11.15-6.92,44.62-9.59,47.01-2.49,2.25-8.67,3.3-10.87,.77-3.32-3.59-7.28-17.34-1.3-24.61,1.63-2.04,3.56-3.99,4.4-6.4,.79-2.7,1.89-9.75,3.07-12.32,1.01-2.56,3.27-4.88,6.03-6.61Z"/>
          <path class="cls-2" d="M42.28,40.47c-3.4-5.27-9.18-2.63-35.4-3.36-.97-.03,3.48,29.73,15.29,37.17,8.06,5.08,19.85,4.77,23.86-5.56,2.47-6.34-3.76-28.25-3.76-28.25Z"/>
          <path class="cls-2" d="M20.6,48.66l-12.4-12.28c-2.05-2.03-2.07-5.38-.04-7.44h0c2.03-2.05,5.38-2.07,7.44-.04l12.4,12.28c2.05,2.03,2.07,5.38,.04,7.44h0c-2.03,2.05-5.38,2.07-7.44,.04Z"/>
          <path class="cls-2" d="M16.22,57.05L3.83,44.77c-2.05-2.03-2.07-5.38-.04-7.44h0c2.03-2.05,5.38-2.07,7.44-.04l12.4,12.28c2.05,2.03,2.07,5.38,.04,7.44h0c-2.03,2.05-5.38,2.07-7.44,.04Z"/>
          <path class="cls-2" d="M11.55,64.49L1.41,54.45c-1.68-1.66-1.69-4.4-.03-6.08h0c1.66-1.68,4.4-1.69,6.08-.03l10.14,10.04c1.68,1.66,1.69,4.4,.03,6.08h0c-1.66,1.68-4.4,1.69-6.08,.03Z"/>
          <path class="cls-3" d="M24.18,50.45c-1.49,0-2.73-.82-4.11-1.86-1.55-1.17-6.46-6.68-6.67-6.92-.16-.18-.14-.46,.04-.62,.18-.16,.46-.14,.62,.04,.05,.06,5.06,5.68,6.54,6.8,2,1.5,3.26,2.09,5.03,1.38,.22-.09,.48,.02,.57,.24,.09,.22-.02,.48-.24,.57-.64,.26-1.22,.37-1.77,.37Z"/>
          <path class="cls-3" d="M20.31,59.07c-1.52,0-2.79-.84-4.14-1.86-1.55-1.17-6.46-6.68-6.67-6.92-.16-.18-.14-.46,.04-.62,.18-.16,.46-.14,.62,.04,.05,.06,5.06,5.68,6.54,6.8,2,1.5,3.26,2.09,5.03,1.38,.22-.09,.48,.02,.57,.24,.09,.22-.02,.48-.24,.57-.62,.25-1.2,.36-1.75,.36Z"/>
          <path class="cls-3" d="M14.6,65.91c-1.52,0-2.79-.84-4.14-1.86-1.55-1.17-6.46-6.68-6.67-6.92-.16-.18-.14-.46,.04-.62,.18-.16,.46-.14,.62,.04,.05,.06,5.06,5.68,6.54,6.8,2,1.5,3.26,2.09,5.03,1.38,.22-.09,.48,.02,.57,.24,.09,.22-.02,.48-.24,.57-.62,.25-1.2,.36-1.75,.36Z"/>
          <path class="cls-3" d="M28.19,62.47c-.17,0-.34-.1-.41-.28-1.38-3.46,6.44-23.06,7.33-25.28,.09-.22,.35-.33,.57-.24,.22,.09,.33,.34,.24,.57-2.4,5.95-8.39,21.98-7.33,24.63,.09,.22-.02,.48-.24,.57-.05,.02-.11,.03-.16,.03Z"/>
        </g>
        <path class="cls-1" d="M132.59,156.79c-10.12,12.79-30.77-1.65-41-8.25-10.23-6.6-73.16-63.16-73.16-63.16l33.89-27.9s52.68,44.51,61.79,49.35c25.69,13.63,34.62,29.56,18.48,49.97Z"/>
      </g>
    </g>
  </g>
</svg>